<?xml version="1.0" encoding="utf-8"?>
<!-- Generator: Adobe Illustrator 27.2.0, SVG Export Plug-In . SVG Version: 6.00 Build 0)  -->
<svg version="1.1" id="Ebene_1" xmlns="http://www.w3.org/2000/svg" xmlns:xlink="http://www.w3.org/1999/xlink" x="0px" y="0px"
	 viewBox="0 0 24 24" style="enable-background:new 0 0 24 24;" xml:space="preserve">
<style type="text/css">
	.st0{fill:#FFFFFF;}
</style>
<path class="st0" d="M20.3,3c-0.3,0-0.6,0.1-0.8,0.2c-0.2,0.1-1,0.4-2.2,0.9S14.4,5.3,12.7,6C9.2,7.5,5.3,9.1,3.3,10
	c-0.1,0-0.3,0.1-0.7,0.3C2.3,10.6,2,11.1,2,11.6c0,0.5,0.2,0.9,0.5,1.2s0.5,0.4,0.8,0.5v0c0.8,0.3,3.1,1.2,3.7,1.5
	c0.2,0.6,1,3.1,1.2,3.7h0c0.1,0.4,0.3,0.7,0.5,1c0.1,0.1,0.2,0.2,0.4,0.3c0.1,0,0.1,0.1,0.2,0.1c0,0,0,0,0,0l0,0c0,0,0,0,0.1,0
	c0,0,0,0,0.1,0C9.5,20,9.6,20,9.7,20c0.5,0,0.9-0.3,0.9-0.3l0,0l2.3-2l2.9,2.7c0.1,0.1,0.5,0.6,1.4,0.6c0.6,0,1-0.3,1.3-0.6
	c0.3-0.3,0.5-0.6,0.5-1l0,0c0.1-0.3,2.8-14.2,2.8-14.2l0,0c0.1-0.4,0.1-0.8,0-1.1s-0.4-0.7-0.7-0.9S20.6,3,20.3,3z M19.9,5.2
	c-0.1,0.5-2.6,12.9-2.7,13.7L13,15l-2.8,2.4l0.8-3c0,0,5.4-5.4,5.7-5.7C16.9,8.4,17,8.3,17,8.2C17,8.1,16.9,8,16.8,8
	c-0.1,0-0.3,0.1-0.4,0.2c-1.1,0.7-6,3.5-8.4,4.9c-0.1-0.1-2.3-0.9-3.5-1.4c2.1-0.9,5.6-2.4,8.9-3.8c1.7-0.7,3.4-1.4,4.6-1.9
	C19.1,5.5,19.6,5.3,19.9,5.2z M17.2,19L17.2,19C17.2,19,17.2,19,17.2,19C17.2,19,17.2,19,17.2,19z"/>
</svg>
