<?xml version="1.0" encoding="utf-8"?>
<!-- Generator: Adobe Illustrator 27.2.0, SVG Export Plug-In . SVG Version: 6.00 Build 0)  -->
<svg version="1.1" id="Ebene_1" xmlns="http://www.w3.org/2000/svg" xmlns:xlink="http://www.w3.org/1999/xlink" x="0px" y="0px"
	 viewBox="0 0 24 24" style="enable-background:new 0 0 24 24;" xml:space="preserve">
<style type="text/css">
	.st0{fill:#FFFFFF;}
</style>
<path class="st0" d="M5.7,2l1.5,5.3v2.6h1.3V7.3L9.9,2H8.6L8.1,4.4C8,5.1,7.9,5.6,7.8,5.9h0C7.7,5.5,7.6,5,7.5,4.4L7,2H5.7z M11.4,4
	c-0.4,0-0.8,0.1-1.1,0.3c-0.3,0.2-0.5,0.4-0.6,0.8C9.7,5.5,9.6,6,9.6,6.6v0.8c0,0.6,0.1,1.1,0.2,1.5s0.3,0.6,0.6,0.8
	c0.3,0.2,0.6,0.3,1.1,0.3c0.4,0,0.8-0.1,1.1-0.3c0.3-0.2,0.4-0.4,0.6-0.8s0.2-0.9,0.2-1.5V6.6c0-0.6-0.1-1.1-0.2-1.5
	c-0.1-0.4-0.3-0.6-0.6-0.8C12.2,4.1,11.9,4,11.4,4z M13.9,4.1v4.3c0,0.5,0.1,0.9,0.3,1.2C14.3,9.9,14.6,10,15,10
	c0.6,0,1-0.3,1.2-0.8h0l0.1,0.7h1V4.1h-1.3v4.6c0,0.1-0.1,0.2-0.2,0.3c-0.1,0.1-0.2,0.1-0.3,0.1c-0.1,0-0.2-0.1-0.3-0.2
	s-0.1-0.3-0.1-0.6V4.1H13.9z M11.4,4.9c0.2,0,0.3,0.1,0.4,0.3c0.1,0.2,0.1,0.5,0.1,0.9v1.8c0,0.4,0,0.7-0.1,0.9
	c-0.1,0.2-0.2,0.3-0.4,0.3c-0.2,0-0.3-0.1-0.4-0.3c-0.1-0.2-0.1-0.5-0.1-0.9V6.1c0-0.4,0-0.7,0.1-0.9C11.1,5,11.2,4.9,11.4,4.9z
	 M5,11c-1.1,0-2,0.9-2,2v7c0,1.1,0.9,2,2,2h14c1.1,0,2-0.9,2-2v-7c0-1.1-0.9-2-2-2H5z M12,13h1.1v2.6h0c0.1-0.2,0.2-0.3,0.4-0.4
	c0.2-0.1,0.4-0.2,0.6-0.2c0.3,0,0.5,0.1,0.6,0.2c0.1,0.1,0.3,0.4,0.3,0.7c0.1,0.3,0.1,0.7,0.1,1.3v0.8h0c0,0.7-0.1,1.3-0.3,1.6
	C14.7,19.8,14.4,20,14,20c-0.2,0-0.4,0-0.6-0.1c-0.2-0.1-0.3-0.2-0.4-0.4h0L13,19.9H12V13z M5.5,13.2h3.3v0.9H7.6v5.8H6.6v-5.8H5.5
	V13.2z M17.1,15c0.4,0,0.7,0.1,0.9,0.2c0.2,0.1,0.3,0.4,0.4,0.6c0.1,0.3,0.1,0.7,0.1,1.2v0.8h-1.8v0.2c0,0.3,0,0.5,0,0.7
	c0,0.2,0.1,0.3,0.1,0.3c0.1,0.1,0.1,0.1,0.3,0.1c0.2,0,0.3-0.1,0.3-0.2c0.1-0.1,0.1-0.3,0.1-0.6l0.9,0.1c0,0,0,0.1,0,0.2
	c0,0.5-0.1,0.8-0.4,1c-0.2,0.2-0.6,0.3-1,0.3c-0.5,0-0.9-0.2-1.1-0.5s-0.3-0.9-0.3-1.6v-0.9c0-0.7,0.1-1.3,0.3-1.6S16.6,15,17.1,15z
	 M8.4,15h1.1v3.6c0,0.2,0,0.4,0.1,0.5c0,0.1,0.1,0.1,0.2,0.1c0.1,0,0.2,0,0.3-0.1c0.1-0.1,0.2-0.1,0.2-0.2V15h1.1v4.9h0h-0.9
	l-0.1-0.6h0C10.2,19.8,9.8,20,9.4,20c-0.3,0-0.6-0.1-0.7-0.3s-0.2-0.5-0.2-1V15z M17.1,15.7c-0.1,0-0.2,0-0.3,0.1
	c-0.1,0.1-0.1,0.2-0.1,0.3c0,0.2,0,0.4,0,0.7v0.3h0.8v-0.3c0-0.3,0-0.5,0-0.7c0-0.2-0.1-0.3-0.1-0.3S17.2,15.7,17.1,15.7z
	 M13.6,15.7c-0.1,0-0.2,0-0.3,0.1s-0.2,0.2-0.2,0.3v2.8c0,0.1,0.1,0.1,0.2,0.2c0.1,0,0.2,0.1,0.2,0.1c0.1,0,0.2,0,0.3-0.1
	c0.1-0.1,0.1-0.2,0.1-0.4c0-0.2,0-0.5,0-0.8v-0.6c0-0.4,0-0.7,0-0.9c0-0.2-0.1-0.4-0.1-0.4C13.8,15.8,13.7,15.7,13.6,15.7z"/>
</svg>
